<svg width="337" height="68" viewBox="0 0 337 68" fill="none" xmlns="http://www.w3.org/2000/svg">
<circle cx="7.92277" cy="7.92277" r="7.92277" transform="matrix(1 0 0 -1 76.9641 67.9094)" fill="#EA4343"/>
<path d="M19.4674 49.8908V56.6818L0 49.8908L19.4674 49.8908Z" fill="#EA4343"/>
<path d="M74.7004 6.79095L74.7004 7.27886e-06L95.0732 6.79095L74.7004 6.79095Z" fill="#EA4343"/>
<path fill-rule="evenodd" clip-rule="evenodd" d="M58.234 38.482H65.6458V68H74.7004V0H65.5553L65.6458 29.4274H43.0093V29.6121L47.8083 31.1478C52.2149 32.5362 55.6255 34.8904 58.04 38.2104C58.1056 38.3005 58.1702 38.3911 58.234 38.482ZM43.0093 38.2259V38.482H43.8272L43.0093 38.2259Z" fill="#EA4343"/>
<path fill-rule="evenodd" clip-rule="evenodd" d="M36.2184 67.7458C38.6786 67.4095 40.9121 66.7397 42.9188 65.7364C45.9973 64.2273 48.3817 62.1145 50.0719 59.3982C51.7621 56.6818 52.6072 53.5127 52.6072 49.8908C52.6072 45.4239 51.3999 41.5304 48.9853 38.2104C46.5708 34.8904 43.1602 32.5362 38.7537 31.1478L36.2184 30.3365L36.2184 38.9348C38.8744 39.7195 40.8966 41.1079 42.2849 43.0999C43.7337 45.0919 44.458 47.4159 44.458 50.0719C44.458 53.3919 43.3715 55.9876 41.1984 57.8589C39.8717 59.034 38.2116 59.8401 36.2184 60.2773V67.7458ZM27.1638 36.0999V27.1979C25.6483 26.3817 24.4109 25.314 23.4514 23.9947C22.0027 22.0027 21.2783 19.6485 21.2783 16.9321C21.2783 13.9139 22.2441 11.5597 24.1758 9.86952C25.0323 9.14279 26.0283 8.57229 27.1638 8.15803V0.531487C25.3976 0.908402 23.7678 1.48579 22.2743 2.26366C19.3768 3.7124 17.1132 5.76477 15.4834 8.42079C13.9139 11.0164 13.1292 14.095 13.1292 17.6565C13.1292 22.063 14.3364 25.8962 16.751 29.1558C19.2094 32.3937 22.6803 34.7084 27.1638 36.0999ZM36.2184 0.24408V7.76313C37.9996 8.20868 39.4785 9.00135 40.6551 10.1412C42.6471 11.9521 43.6431 14.4874 43.6431 17.747H51.7923C51.7319 12.3746 49.9512 8.08878 46.4501 4.88949C43.7312 2.35811 40.3206 0.809644 36.2184 0.24408ZM27.1638 60.0148V67.616C24.9388 67.263 22.9166 66.6666 21.0972 65.8269C18.0186 64.3782 15.6343 62.2956 13.9441 59.5792C12.2539 56.8629 11.3786 53.6334 11.3182 49.8908H19.4674C19.4674 53.2108 20.5841 55.8367 22.8176 57.7683C24.0241 58.7844 25.4729 59.5332 27.1638 60.0148Z" fill="#EA4343"/>
<path d="M109.962 25.9695C109.962 27.5187 109.785 28.7934 109.432 29.7937C109.078 30.794 108.578 31.5808 107.931 32.1542C107.285 32.7275 106.504 33.1301 105.589 33.3618C104.674 33.5814 103.656 33.6912 102.533 33.6912C101.936 33.6912 101.222 33.6424 100.393 33.5448C99.5752 33.4472 98.8372 33.313 98.1785 33.1422V30.3976C98.764 30.5439 99.441 30.6781 100.21 30.8001C100.99 30.9099 101.887 30.9648 102.899 30.9648C104.205 30.9648 105.15 30.5927 105.735 29.8486C106.321 29.0923 106.614 27.9273 106.614 26.3537C106.614 24.6459 106.394 23.4322 105.955 22.7124C105.516 21.9805 104.723 21.4926 103.576 21.2486C102.527 21.029 101.643 20.7485 100.923 20.4069C100.203 20.0531 99.6179 19.6018 99.1665 19.0529C98.2882 17.9794 97.8491 16.3509 97.8491 14.1673C97.8491 12.8255 98.026 11.6971 98.3797 10.7822C98.7457 9.8673 99.2641 9.12319 99.9351 8.54985C100.594 7.97652 101.368 7.56786 102.259 7.32389C103.162 7.06772 104.15 6.93964 105.223 6.93964C105.857 6.93964 106.541 6.99453 107.273 7.10432C108.004 7.2141 108.651 7.34829 109.212 7.50687V10.2333C108.553 10.0869 107.821 9.95879 107.016 9.849C106.223 9.73922 105.504 9.68432 104.857 9.68432C103.82 9.68432 102.948 10.0198 102.241 10.6907C101.533 11.3616 101.179 12.3863 101.179 13.7648C101.179 14.7284 101.246 15.5031 101.381 16.0886C101.527 16.6619 101.808 17.1072 102.222 17.4243C102.637 17.7293 103.253 17.9672 104.07 18.138C104.973 18.3209 105.784 18.5771 106.504 18.9065C107.224 19.2236 107.84 19.675 108.352 20.2605C108.864 20.8461 109.261 21.6024 109.541 22.5295C109.822 23.4566 109.962 24.6032 109.962 25.9695Z" fill="white"/>
<path d="M116.606 20.3154V33.435H113.422V7.19581H116.606V16.0886C117.179 15.5641 117.82 15.1615 118.527 14.8809C119.247 14.5882 120.046 14.4418 120.924 14.4418C123.01 14.4418 124.486 14.9724 125.352 16.0337C125.791 16.5704 126.103 17.2597 126.286 18.1014C126.481 18.9309 126.578 19.919 126.578 21.0656V33.435H123.394V20.6997C123.394 19.5164 123.199 18.6259 122.809 18.0282C122.419 17.4304 121.601 17.1316 120.357 17.1316C119.698 17.1316 119.082 17.2963 118.509 17.6256C117.948 17.9428 117.49 18.3453 117.137 18.8333C116.783 19.3212 116.606 19.8153 116.606 20.3154Z" fill="white"/>
<path d="M144.237 30.8184V33.435H143.103C142.603 33.435 142.084 33.3008 141.547 33.0325C141.011 32.7641 140.59 32.2883 140.285 31.6052C139.821 32.2761 139.199 32.7946 138.418 33.1605C137.65 33.5143 136.625 33.6912 135.344 33.6912C134.674 33.6912 133.996 33.6241 133.313 33.4899C132.642 33.3557 132.045 33.0813 131.52 32.6665C130.996 32.2518 130.569 31.6845 130.239 30.9648C129.922 30.2329 129.764 29.2936 129.764 28.1469C129.764 26.1219 130.349 24.5727 131.52 23.4992C132.703 22.4258 134.344 21.889 136.442 21.889H139.388V19.8763C139.388 19.0712 139.157 18.4124 138.693 17.9001C138.242 17.3877 137.54 17.1316 136.589 17.1316C135.515 17.1316 134.576 17.1987 133.771 17.3329C132.978 17.4548 132.106 17.65 131.154 17.9184V15.192C131.85 14.9846 132.63 14.8077 133.496 14.6614C134.375 14.515 135.277 14.4418 136.204 14.4418C138.608 14.4418 140.279 14.9358 141.218 15.9239C141.706 16.4363 142.054 17.0828 142.261 17.8635C142.468 18.632 142.572 19.553 142.572 20.6265V29.6108C142.572 29.9889 142.694 30.2878 142.938 30.5073C143.194 30.7147 143.627 30.8184 144.237 30.8184ZM136.095 31.0014C137.217 31.0014 138.046 30.7086 138.583 30.1231C139.12 29.5254 139.388 28.9459 139.388 28.3848V24.4324H136.241C135.375 24.4324 134.619 24.7252 133.972 25.3107C133.338 25.8963 133.021 26.7685 133.021 27.9273C133.021 29.0984 133.283 29.9035 133.807 30.3427C134.332 30.7818 135.094 31.0014 136.095 31.0014Z" fill="white"/>
<path d="M150.606 20.3154V33.435H147.423V7.19581H150.606V16.0886C151.18 15.5641 151.82 15.1615 152.528 14.8809C153.247 14.5882 154.046 14.4418 154.925 14.4418C157.011 14.4418 158.487 14.9724 159.353 16.0337C159.792 16.5704 160.103 17.2597 160.286 18.1014C160.481 18.9309 160.579 19.919 160.579 21.0656V33.435H157.395V20.6997C157.395 19.5164 157.2 18.6259 156.809 18.0282C156.419 17.4304 155.602 17.1316 154.357 17.1316C153.699 17.1316 153.083 17.2963 152.509 17.6256C151.948 17.9428 151.491 18.3453 151.137 18.8333C150.783 19.3212 150.606 19.8153 150.606 20.3154Z" fill="white"/>
<path d="M178.238 30.8184V33.435H177.103C176.603 33.435 176.085 33.3008 175.548 33.0325C175.011 32.7641 174.59 32.2883 174.285 31.6052C173.822 32.2761 173.2 32.7946 172.419 33.1605C171.65 33.5143 170.626 33.6912 169.345 33.6912C168.674 33.6912 167.997 33.6241 167.314 33.4899C166.643 33.3557 166.045 33.0813 165.521 32.6665C164.996 32.2518 164.569 31.6845 164.24 30.9648C163.923 30.2329 163.764 29.2936 163.764 28.1469C163.764 26.1219 164.35 24.5727 165.521 23.4992C166.704 22.4258 168.345 21.889 170.443 21.889H173.389V19.8763C173.389 19.0712 173.157 18.4124 172.693 17.9001C172.242 17.3877 171.541 17.1316 170.589 17.1316C169.516 17.1316 168.576 17.1987 167.771 17.3329C166.978 17.4548 166.106 17.65 165.155 17.9184V15.192C165.85 14.9846 166.631 14.8077 167.497 14.6614C168.375 14.515 169.278 14.4418 170.205 14.4418C172.608 14.4418 174.279 14.9358 175.219 15.9239C175.706 16.4363 176.054 17.0828 176.261 17.8635C176.469 18.632 176.573 19.553 176.573 20.6265V29.6108C176.573 29.9889 176.695 30.2878 176.939 30.5073C177.195 30.7147 177.628 30.8184 178.238 30.8184ZM170.095 31.0014C171.217 31.0014 172.047 30.7086 172.584 30.1231C173.12 29.5254 173.389 28.9459 173.389 28.3848V24.4324H170.241C169.375 24.4324 168.619 24.7252 167.973 25.3107C167.338 25.8963 167.021 26.7685 167.021 27.9273C167.021 29.0984 167.283 29.9035 167.808 30.3427C168.332 30.7818 169.095 31.0014 170.095 31.0014Z" fill="white"/>
<path d="M194.323 7.19581V33.435H191.706L191.45 31.8614C190.865 32.4347 190.212 32.8861 189.492 33.2154C188.773 33.5326 187.937 33.6912 186.986 33.6912C185.79 33.6912 184.802 33.5082 184.021 33.1422C183.253 32.7641 182.631 32.2091 182.155 31.4771C181.679 30.7574 181.344 29.8425 181.149 28.7325C180.966 27.6224 180.874 26.3415 180.874 24.8899C180.874 21.1937 181.514 18.5283 182.795 16.8937C184.088 15.2591 186.168 14.4418 189.035 14.4418C189.877 14.4418 190.578 14.4906 191.139 14.5882V7.19581H194.323ZM187.589 31.0014C188.675 31.0014 189.535 30.6659 190.169 29.995C190.816 29.3119 191.139 28.5861 191.139 27.8176V17.278C190.871 17.2292 190.535 17.1926 190.133 17.1682C189.73 17.1438 189.242 17.1316 188.669 17.1316C187.766 17.1316 187.028 17.3146 186.455 17.6805C185.894 18.0465 185.436 18.571 185.083 19.2541C184.741 19.9373 184.497 20.7851 184.351 21.7975C184.204 22.81 184.131 23.9689 184.131 25.2741C184.131 26.3964 184.204 27.3296 184.351 28.0737C184.497 28.8056 184.704 29.3851 184.973 29.812C185.253 30.2512 185.607 30.5622 186.034 30.7452C186.461 30.916 186.979 31.0014 187.589 31.0014Z" fill="white"/>
<path d="M212.165 30.8184V33.435H211.03C210.53 33.435 210.012 33.3008 209.475 33.0325C208.938 32.7641 208.518 32.2883 208.213 31.6052C207.749 32.2761 207.127 32.7946 206.346 33.1605C205.578 33.5143 204.553 33.6912 203.272 33.6912C202.601 33.6912 201.924 33.6241 201.241 33.4899C200.57 33.3557 199.972 33.0813 199.448 32.6665C198.923 32.2518 198.496 31.6845 198.167 30.9648C197.85 30.2329 197.691 29.2936 197.691 28.1469C197.691 26.1219 198.277 24.5727 199.448 23.4992C200.631 22.4258 202.272 21.889 204.37 21.889H207.316V19.8763C207.316 19.0712 207.084 18.4124 206.621 17.9001C206.169 17.3877 205.468 17.1316 204.516 17.1316C203.443 17.1316 202.504 17.1987 201.699 17.3329C200.906 17.4548 200.033 17.65 199.082 17.9184V15.192C199.777 14.9846 200.558 14.8077 201.424 14.6614C202.302 14.515 203.205 14.4418 204.132 14.4418C206.535 14.4418 208.206 14.9358 209.146 15.9239C209.634 16.4363 209.981 17.0828 210.189 17.8635C210.396 18.632 210.5 19.553 210.5 20.6265V29.6108C210.5 29.9889 210.622 30.2878 210.866 30.5073C211.122 30.7147 211.555 30.8184 212.165 30.8184ZM204.022 31.0014C205.145 31.0014 205.974 30.7086 206.511 30.1231C207.048 29.5254 207.316 28.9459 207.316 28.3848V24.4324H204.169C203.303 24.4324 202.546 24.7252 201.9 25.3107C201.265 25.8963 200.948 26.7685 200.948 27.9273C200.948 29.0984 201.211 29.9035 201.735 30.3427C202.26 30.7818 203.022 31.0014 204.022 31.0014Z" fill="white"/>
<path d="M223.273 14.698V17.5158H218.918V28.9337C218.918 29.3851 219.053 29.8425 219.321 30.3061C219.601 30.7696 220.095 31.0014 220.803 31.0014C221.376 31.0014 221.858 30.9587 222.249 30.8733C222.651 30.7879 222.993 30.7025 223.273 30.6171V33.252C223.017 33.3252 222.584 33.4167 221.974 33.5265C221.364 33.6363 220.724 33.6912 220.053 33.6912C218.577 33.6912 217.485 33.2276 216.777 32.3005C216.082 31.3734 215.734 30.1902 215.734 28.7507V17.5158H213.301V14.698H215.734V10.1967H218.918V14.698H223.273Z" fill="white"/>
<path d="M248.564 7.19581V33.435H245.307V21.3767H237.585V33.435H234.328V7.19581H237.585V18.5954H245.307V7.19581H248.564Z" fill="white"/>
<path d="M266.918 23.7005C266.918 25.6645 266.766 27.293 266.461 28.5861C266.168 29.8669 265.723 30.8855 265.125 31.6418C264.527 32.4103 263.783 32.9471 262.893 33.252C262.002 33.5448 260.971 33.6912 259.8 33.6912C258.654 33.6912 257.641 33.5448 256.763 33.252C255.884 32.9471 255.14 32.4103 254.53 31.6418C253.933 30.8855 253.475 29.8669 253.158 28.5861C252.841 27.293 252.682 25.6645 252.682 23.7005C252.682 20.4923 253.256 18.1502 254.402 16.6741C255.549 15.1859 257.348 14.4418 259.8 14.4418C262.252 14.4418 264.051 15.1859 265.198 16.6741C266.345 18.1502 266.918 20.4923 266.918 23.7005ZM263.661 24.2495C263.661 22.932 263.6 21.8097 263.478 20.8826C263.356 19.9556 263.149 19.2114 262.856 18.6503C262.295 17.589 261.276 17.0584 259.8 17.0584C258.312 17.0584 257.3 17.589 256.763 18.6503C256.47 19.2114 256.257 19.9556 256.122 20.8826C256 21.8097 255.939 22.932 255.939 24.2495C255.939 26.7014 256.226 28.4519 256.799 29.501C257.373 30.55 258.373 31.0746 259.8 31.0746C261.227 31.0746 262.228 30.55 262.801 29.501C263.374 28.4519 263.661 26.7014 263.661 24.2495Z" fill="white"/>
<path d="M281.027 28.0005C281.027 30.0743 280.46 31.5442 279.326 32.4103C278.191 33.2642 276.66 33.6912 274.733 33.6912C273.659 33.6912 272.744 33.6241 271.988 33.4899C271.244 33.3557 270.658 33.2276 270.232 33.1057V30.361C270.536 30.422 270.97 30.5012 271.531 30.5988C272.092 30.6964 272.683 30.7818 273.306 30.855C273.94 30.9282 274.501 30.9648 274.989 30.9648C275.904 30.9648 276.581 30.6903 277.02 30.1414C277.471 29.5803 277.697 28.9276 277.697 28.1835C277.697 27.293 277.538 26.6343 277.221 26.2073C276.916 25.7804 276.288 25.4815 275.337 25.3107C273.409 24.957 272.049 24.3532 271.256 23.4992C270.475 22.6331 270.085 21.4987 270.085 20.0958C270.085 19.0712 270.244 18.2051 270.561 17.4975C270.89 16.7778 271.335 16.1923 271.897 15.7409C272.458 15.2896 273.117 14.9602 273.873 14.7528C274.641 14.5455 275.477 14.4418 276.38 14.4418C277.355 14.4418 278.173 14.5211 278.832 14.6797C279.49 14.8382 280.009 14.9663 280.387 15.0639V17.8086C280.07 17.7354 279.753 17.6622 279.435 17.589C279.13 17.5158 278.825 17.4365 278.52 17.3511C277.923 17.2048 277.112 17.1316 276.087 17.1316C275.013 17.1316 274.288 17.3999 273.909 17.9367C273.531 18.4612 273.342 19.1199 273.342 19.9129C273.342 21.2791 274.141 22.0903 275.739 22.3465C277.691 22.6636 279.057 23.2736 279.838 24.1763C280.631 25.079 281.027 26.3537 281.027 28.0005Z" fill="white"/>
<path d="M294.606 28.0005C294.606 30.0743 294.039 31.5442 292.904 32.4103C291.77 33.2642 290.239 33.6912 288.311 33.6912C287.238 33.6912 286.323 33.6241 285.567 33.4899C284.823 33.3557 284.237 33.2276 283.81 33.1057V30.361C284.115 30.422 284.548 30.5012 285.109 30.5988C285.67 30.6964 286.262 30.7818 286.884 30.855C287.518 30.9282 288.08 30.9648 288.567 30.9648C289.482 30.9648 290.159 30.6903 290.599 30.1414C291.05 29.5803 291.276 28.9276 291.276 28.1835C291.276 27.293 291.117 26.6343 290.8 26.2073C290.495 25.7804 289.867 25.4815 288.915 25.3107C286.988 24.957 285.628 24.3532 284.835 23.4992C284.054 22.6331 283.664 21.4987 283.664 20.0958C283.664 19.0712 283.822 18.2051 284.139 17.4975C284.469 16.7778 284.914 16.1923 285.475 15.7409C286.036 15.2896 286.695 14.9602 287.451 14.7528C288.22 14.5455 289.055 14.4418 289.958 14.4418C290.934 14.4418 291.751 14.5211 292.41 14.6797C293.069 14.8382 293.587 14.9663 293.965 15.0639V17.8086C293.648 17.7354 293.331 17.6622 293.014 17.589C292.709 17.5158 292.404 17.4365 292.099 17.3511C291.501 17.2048 290.69 17.1316 289.665 17.1316C288.592 17.1316 287.866 17.3999 287.488 17.9367C287.11 18.4612 286.921 19.1199 286.921 19.9129C286.921 21.2791 287.72 22.0903 289.318 22.3465C291.269 22.6636 292.636 23.2736 293.416 24.1763C294.209 25.079 294.606 26.3537 294.606 28.0005Z" fill="white"/>
<path d="M311.35 30.8184V33.435H310.215C309.715 33.435 309.197 33.3008 308.66 33.0325C308.123 32.7641 307.702 32.2883 307.398 31.6052C306.934 32.2761 306.312 32.7946 305.531 33.1605C304.763 33.5143 303.738 33.6912 302.457 33.6912C301.786 33.6912 301.109 33.6241 300.426 33.4899C299.755 33.3557 299.157 33.0813 298.633 32.6665C298.108 32.2518 297.681 31.6845 297.352 30.9648C297.035 30.2329 296.876 29.2936 296.876 28.1469C296.876 26.1219 297.462 24.5727 298.633 23.4992C299.816 22.4258 301.457 21.889 303.555 21.889H306.501V19.8763C306.501 19.0712 306.269 18.4124 305.806 17.9001C305.354 17.3877 304.653 17.1316 303.701 17.1316C302.628 17.1316 301.689 17.1987 300.883 17.3329C300.091 17.4548 299.218 17.65 298.267 17.9184V15.192C298.962 14.9846 299.743 14.8077 300.609 14.6614C301.487 14.515 302.39 14.4418 303.317 14.4418C305.72 14.4418 307.391 14.9358 308.331 15.9239C308.819 16.4363 309.166 17.0828 309.374 17.8635C309.581 18.632 309.685 19.553 309.685 20.6265V29.6108C309.685 29.9889 309.807 30.2878 310.051 30.5073C310.307 30.7147 310.74 30.8184 311.35 30.8184ZM303.207 31.0014C304.33 31.0014 305.159 30.7086 305.696 30.1231C306.233 29.5254 306.501 28.9459 306.501 28.3848V24.4324H303.354C302.488 24.4324 301.731 24.7252 301.085 25.3107C300.45 25.8963 300.133 26.7685 300.133 27.9273C300.133 29.0984 300.396 29.9035 300.92 30.3427C301.445 30.7818 302.207 31.0014 303.207 31.0014Z" fill="white"/>
<path d="M317.92 7.19581V10.5809H314.352V7.19581H317.92ZM317.719 14.698V33.435H314.535V14.698H317.719Z" fill="white"/>
<path d="M325.406 20.3154V33.435H322.222V14.698H324.838L325.113 16.3814C326.333 15.0883 327.87 14.4418 329.724 14.4418C331.81 14.4418 333.286 14.9724 334.152 16.0337C334.591 16.5704 334.902 17.2597 335.085 18.1014C335.28 18.9309 335.378 19.919 335.378 21.0656V33.435H332.194V20.6997C332.194 19.5164 331.999 18.6259 331.609 18.0282C331.218 17.4304 330.401 17.1316 329.157 17.1316C328.498 17.1316 327.882 17.2963 327.309 17.6256C326.747 17.9428 326.29 18.3453 325.936 18.8333C325.582 19.3212 325.406 19.8153 325.406 20.3154Z" fill="white"/>
<path d="M99.7288 51.8003H105.891V52.8663H99.7288V51.8003ZM99.862 57.8128H98.6295V46.1542H106.624V47.2202H99.862V57.8128Z" fill="white"/>
<path d="M115.905 57.8961C115.161 57.8961 114.511 57.7573 113.956 57.4797C113.401 57.2022 112.968 56.7858 112.657 56.2306C112.357 55.6754 112.207 54.9815 112.207 54.1487V49.0689H113.39V54.0155C113.39 54.9482 113.618 55.6532 114.073 56.1307C114.539 56.597 115.189 56.8302 116.021 56.8302C116.632 56.8302 117.16 56.7081 117.604 56.4638C118.059 56.2084 118.403 55.842 118.636 55.3645C118.881 54.8871 119.003 54.3153 119.003 53.6491V49.0689H120.185V57.8128H119.053V55.4145L119.236 55.8475C118.958 56.4915 118.525 56.9967 117.937 57.3632C117.359 57.7185 116.682 57.8961 115.905 57.8961Z" fill="white"/>
<path d="M127.145 57.8128V45.4547H128.328V57.8128H127.145Z" fill="white"/>
<path d="M135.282 57.8128V45.4547H136.464V57.8128H135.282Z" fill="white"/>
<path d="M154.906 57.9128C154.04 57.9128 153.207 57.774 152.408 57.4964C151.62 57.2077 151.009 56.8413 150.576 56.3972L151.059 55.4478C151.47 55.8475 152.019 56.1862 152.708 56.4638C153.407 56.7303 154.14 56.8635 154.906 56.8635C155.639 56.8635 156.233 56.7747 156.688 56.597C157.155 56.4083 157.493 56.1584 157.704 55.8475C157.926 55.5366 158.037 55.1924 158.037 54.8149C158.037 54.3597 157.904 53.9933 157.638 53.7157C157.382 53.4381 157.044 53.2216 156.622 53.0661C156.2 52.8996 155.734 52.7552 155.223 52.6331C154.712 52.511 154.201 52.3833 153.69 52.25C153.18 52.1057 152.708 51.9169 152.275 51.6837C151.853 51.4506 151.509 51.1452 151.242 50.7677C150.987 50.3791 150.859 49.8739 150.859 49.2521C150.859 48.6747 151.009 48.1473 151.309 47.6698C151.62 47.1813 152.092 46.7927 152.724 46.504C153.357 46.2042 154.168 46.0543 155.156 46.0543C155.811 46.0543 156.461 46.1487 157.105 46.3374C157.749 46.5151 158.304 46.7649 158.77 47.0869L158.354 48.0696C157.854 47.7365 157.321 47.4922 156.755 47.3367C156.2 47.1813 155.661 47.1036 155.139 47.1036C154.44 47.1036 153.863 47.198 153.407 47.3867C152.952 47.5755 152.613 47.8308 152.391 48.1528C152.18 48.4637 152.075 48.8191 152.075 49.2188C152.075 49.674 152.203 50.0404 152.458 50.318C152.724 50.5956 153.069 50.8121 153.491 50.9676C153.924 51.123 154.396 51.2618 154.906 51.384C155.417 51.5061 155.922 51.6393 156.422 51.7837C156.933 51.928 157.399 52.1168 157.821 52.35C158.254 52.572 158.598 52.8718 158.854 53.2493C159.12 53.6268 159.253 54.1209 159.253 54.7316C159.253 55.2979 159.098 55.8253 158.787 56.3139C158.476 56.7913 157.999 57.1799 157.355 57.4797C156.722 57.7684 155.906 57.9128 154.906 57.9128Z" fill="white"/>
<path d="M168.118 57.8961C167.296 57.8961 166.663 57.6741 166.219 57.2299C165.775 56.7858 165.553 56.1584 165.553 55.3479V47.1369H166.735V55.2813C166.735 55.792 166.863 56.1862 167.118 56.4638C167.385 56.7414 167.762 56.8802 168.251 56.8802C168.773 56.8802 169.206 56.7303 169.55 56.4305L169.966 57.2799C169.733 57.4908 169.45 57.6463 169.117 57.7462C168.795 57.8462 168.462 57.8961 168.118 57.8961ZM163.987 50.0515V49.0689H169.4V50.0515H163.987Z" fill="white"/>
<path d="M181.263 57.8128V55.8808L181.213 55.5644V52.3333C181.213 51.5894 181.002 51.0175 180.58 50.6178C180.169 50.2181 179.553 50.0182 178.731 50.0182C178.165 50.0182 177.626 50.1126 177.116 50.3014C176.605 50.4901 176.172 50.74 175.817 51.0508L175.284 50.1681C175.728 49.7906 176.261 49.5019 176.883 49.3021C177.504 49.0911 178.159 48.9856 178.848 48.9856C179.98 48.9856 180.852 49.2687 181.463 49.835C182.084 50.3902 182.395 51.2396 182.395 52.3833V57.8128H181.263ZM178.248 57.8961C177.593 57.8961 177.021 57.7906 176.533 57.5797C176.055 57.3576 175.689 57.0578 175.434 56.6803C175.178 56.2917 175.05 55.8475 175.05 55.3479C175.05 54.8926 175.156 54.4818 175.367 54.1154C175.589 53.7379 175.944 53.4381 176.433 53.216C176.933 52.9828 177.599 52.8663 178.431 52.8663H181.446V53.749H178.465C177.621 53.749 177.032 53.8989 176.699 54.1987C176.377 54.4985 176.216 54.8704 176.216 55.3146C176.216 55.8142 176.411 56.2139 176.799 56.5137C177.188 56.8135 177.732 56.9634 178.431 56.9634C179.098 56.9634 179.67 56.8135 180.147 56.5137C180.635 56.2028 180.991 55.7587 181.213 55.1813L181.479 55.9974C181.257 56.5748 180.869 57.0356 180.313 57.3798C179.769 57.724 179.081 57.8961 178.248 57.8961Z" fill="white"/>
<path d="M192.902 57.8961C192.036 57.8961 191.259 57.7074 190.57 57.3298C189.893 56.9412 189.36 56.4138 188.972 55.7476C188.583 55.0703 188.389 54.2986 188.389 53.4325C188.389 52.5554 188.583 51.7837 188.972 51.1175C189.36 50.4513 189.893 49.9294 190.57 49.5519C191.259 49.1744 192.036 48.9856 192.902 48.9856C193.646 48.9856 194.318 49.13 194.917 49.4186C195.517 49.7073 195.989 50.1404 196.333 50.7177L195.45 51.3173C195.151 50.8732 194.779 50.5456 194.335 50.3347C193.89 50.1237 193.407 50.0182 192.886 50.0182C192.264 50.0182 191.703 50.1626 191.203 50.4513C190.704 50.7288 190.31 51.123 190.021 51.6338C189.732 52.1445 189.588 52.7441 189.588 53.4325C189.588 54.1209 189.732 54.7205 190.021 55.2313C190.31 55.7421 190.704 56.1418 191.203 56.4305C191.703 56.7081 192.264 56.8468 192.886 56.8468C193.407 56.8468 193.89 56.7414 194.335 56.5304C194.779 56.3194 195.151 55.9974 195.45 55.5644L196.333 56.164C195.989 56.7303 195.517 57.1633 194.917 57.4631C194.318 57.7518 193.646 57.8961 192.902 57.8961Z" fill="white"/>
<path d="M203.123 55.5477L203.156 54.0321L208.602 49.0689H210.051L206.204 52.7497L205.538 53.316L203.123 55.5477ZM202.19 57.8128V45.4547H203.373V57.8128H202.19ZM208.969 57.8128L205.321 53.266L206.088 52.35L210.418 57.8128H208.969Z" fill="white"/>
<path d="M224.13 57.8128V46.1542H228.877C230.12 46.1542 231.209 46.4041 232.141 46.9037C233.085 47.3923 233.818 48.0751 234.34 48.9523C234.862 49.8295 235.123 50.8399 235.123 51.9835C235.123 53.1272 234.862 54.1376 234.34 55.0148C233.818 55.8919 233.085 56.5804 232.141 57.08C231.209 57.5686 230.12 57.8128 228.877 57.8128H224.13ZM225.363 56.7469H228.81C229.843 56.7469 230.737 56.5471 231.492 56.1473C232.258 55.7365 232.852 55.1758 233.274 54.4652C233.696 53.7434 233.907 52.9162 233.907 51.9835C233.907 51.0397 233.696 50.2125 233.274 49.5019C232.852 48.7913 232.258 48.2361 231.492 47.8364C230.737 47.4256 229.843 47.2202 228.81 47.2202H225.363V56.7469Z" fill="white"/>
<path d="M245.019 57.8961C244.108 57.8961 243.309 57.7074 242.62 57.3298C241.932 56.9412 241.393 56.4138 241.005 55.7476C240.616 55.0703 240.422 54.2986 240.422 53.4325C240.422 52.5665 240.605 51.8003 240.971 51.1341C241.349 50.4679 241.86 49.9461 242.504 49.5685C243.159 49.1799 243.892 48.9856 244.702 48.9856C245.524 48.9856 246.251 49.1744 246.884 49.5519C247.528 49.9183 248.033 50.4402 248.4 51.1175C248.766 51.7837 248.949 52.5554 248.949 53.4325C248.949 53.4881 248.944 53.5491 248.933 53.6157C248.933 53.6713 248.933 53.7323 248.933 53.799H241.321V52.9162H248.3L247.833 53.266C247.833 52.6331 247.694 52.0724 247.417 51.5838C247.15 51.0842 246.784 50.6955 246.318 50.418C245.851 50.1404 245.313 50.0016 244.702 50.0016C244.103 50.0016 243.564 50.1404 243.087 50.418C242.609 50.6955 242.237 51.0842 241.971 51.5838C241.704 52.0835 241.571 52.6553 241.571 53.2993V53.4825C241.571 54.1487 241.715 54.7372 242.004 55.2479C242.304 55.7476 242.715 56.1418 243.236 56.4305C243.769 56.7081 244.375 56.8468 245.052 56.8468C245.585 56.8468 246.079 56.7525 246.534 56.5637C247.001 56.3749 247.4 56.0863 247.733 55.6976L248.4 56.4638C248.011 56.9301 247.522 57.2854 246.934 57.5297C246.357 57.774 245.718 57.8961 245.019 57.8961Z" fill="white"/>
<path d="M257.106 57.8128L253.225 49.0689H254.458L258.022 57.1799H257.439L261.053 49.0689H262.219L258.322 57.8128H257.106Z" fill="white"/>
<path d="M271.019 57.8961C270.108 57.8961 269.309 57.7074 268.62 57.3298C267.932 56.9412 267.394 56.4138 267.005 55.7476C266.616 55.0703 266.422 54.2986 266.422 53.4325C266.422 52.5665 266.605 51.8003 266.972 51.1341C267.349 50.4679 267.86 49.9461 268.504 49.5685C269.159 49.1799 269.892 48.9856 270.702 48.9856C271.524 48.9856 272.251 49.1744 272.884 49.5519C273.528 49.9183 274.033 50.4402 274.4 51.1175C274.766 51.7837 274.949 52.5554 274.949 53.4325C274.949 53.4881 274.944 53.5491 274.933 53.6157C274.933 53.6713 274.933 53.7323 274.933 53.799H267.321V52.9162H274.3L273.834 53.266C273.834 52.6331 273.695 52.0724 273.417 51.5838C273.151 51.0842 272.784 50.6955 272.318 50.418C271.852 50.1404 271.313 50.0016 270.702 50.0016C270.103 50.0016 269.564 50.1404 269.087 50.418C268.609 50.6955 268.237 51.0842 267.971 51.5838C267.704 52.0835 267.571 52.6553 267.571 53.2993V53.4825C267.571 54.1487 267.716 54.7372 268.004 55.2479C268.304 55.7476 268.715 56.1418 269.237 56.4305C269.77 56.7081 270.375 56.8468 271.052 56.8468C271.585 56.8468 272.079 56.7525 272.534 56.5637C273.001 56.3749 273.401 56.0863 273.734 55.6976L274.4 56.4638C274.011 56.9301 273.523 57.2854 272.934 57.5297C272.357 57.774 271.718 57.8961 271.019 57.8961Z" fill="white"/>
<path d="M281.021 57.8128V45.4547H282.203V57.8128H281.021Z" fill="white"/>
<path d="M292.722 57.8961C291.878 57.8961 291.117 57.7074 290.44 57.3298C289.774 56.9412 289.246 56.4138 288.858 55.7476C288.469 55.0703 288.275 54.2986 288.275 53.4325C288.275 52.5554 288.469 51.7837 288.858 51.1175C289.246 50.4513 289.774 49.9294 290.44 49.5519C291.106 49.1744 291.867 48.9856 292.722 48.9856C293.588 48.9856 294.354 49.1744 295.02 49.5519C295.697 49.9294 296.225 50.4513 296.602 51.1175C296.991 51.7837 297.185 52.5554 297.185 53.4325C297.185 54.2986 296.991 55.0703 296.602 55.7476C296.225 56.4138 295.697 56.9412 295.02 57.3298C294.343 57.7074 293.577 57.8961 292.722 57.8961ZM292.722 56.8468C293.355 56.8468 293.915 56.7081 294.404 56.4305C294.892 56.1418 295.275 55.7421 295.553 55.2313C295.842 54.7094 295.986 54.1098 295.986 53.4325C295.986 52.7441 295.842 52.1445 295.553 51.6338C295.275 51.123 294.892 50.7288 294.404 50.4513C293.915 50.1626 293.36 50.0182 292.738 50.0182C292.117 50.0182 291.561 50.1626 291.073 50.4513C290.584 50.7288 290.196 51.123 289.907 51.6338C289.618 52.1445 289.474 52.7441 289.474 53.4325C289.474 54.1098 289.618 54.7094 289.907 55.2313C290.196 55.7421 290.584 56.1418 291.073 56.4305C291.561 56.7081 292.111 56.8468 292.722 56.8468Z" fill="white"/>
<path d="M307.777 57.8961C307.022 57.8961 306.339 57.724 305.729 57.3798C305.118 57.0245 304.629 56.5193 304.263 55.8642C303.908 55.198 303.73 54.3874 303.73 53.4325C303.73 52.4776 303.908 51.6726 304.263 51.0175C304.618 50.3513 305.101 49.8461 305.712 49.5019C306.323 49.1577 307.011 48.9856 307.777 48.9856C308.61 48.9856 309.354 49.1744 310.009 49.5519C310.675 49.9183 311.197 50.4402 311.575 51.1175C311.952 51.7837 312.141 52.5554 312.141 53.4325C312.141 54.3208 311.952 55.0981 311.575 55.7643C311.197 56.4305 310.675 56.9523 310.009 57.3298C309.354 57.7074 308.61 57.8961 307.777 57.8961ZM303.264 61.0439V49.0689H304.396V51.7004L304.28 53.4492L304.446 55.2146V61.0439H303.264ZM307.694 56.8468C308.316 56.8468 308.871 56.7081 309.359 56.4305C309.848 56.1418 310.237 55.7421 310.525 55.2313C310.814 54.7094 310.958 54.1098 310.958 53.4325C310.958 52.7552 310.814 52.1612 310.525 51.6504C310.237 51.1397 309.848 50.74 309.359 50.4513C308.871 50.1626 308.316 50.0182 307.694 50.0182C307.072 50.0182 306.511 50.1626 306.012 50.4513C305.523 50.74 305.135 51.1397 304.846 51.6504C304.568 52.1612 304.429 52.7552 304.429 53.4325C304.429 54.1098 304.568 54.7094 304.846 55.2313C305.135 55.7421 305.523 56.1418 306.012 56.4305C306.511 56.7081 307.072 56.8468 307.694 56.8468Z" fill="white"/>
<path d="M321.93 57.8961C321.019 57.8961 320.22 57.7074 319.531 57.3298C318.843 56.9412 318.304 56.4138 317.916 55.7476C317.527 55.0703 317.333 54.2986 317.333 53.4325C317.333 52.5665 317.516 51.8003 317.882 51.1341C318.26 50.4679 318.771 49.9461 319.415 49.5685C320.07 49.1799 320.803 48.9856 321.613 48.9856C322.435 48.9856 323.162 49.1744 323.795 49.5519C324.439 49.9183 324.944 50.4402 325.311 51.1175C325.677 51.7837 325.86 52.5554 325.86 53.4325C325.86 53.4881 325.855 53.5491 325.844 53.6157C325.844 53.6713 325.844 53.7323 325.844 53.799H318.232V52.9162H325.211L324.744 53.266C324.744 52.6331 324.606 52.0724 324.328 51.5838C324.061 51.0842 323.695 50.6955 323.229 50.418C322.762 50.1404 322.224 50.0016 321.613 50.0016C321.014 50.0016 320.475 50.1404 319.998 50.418C319.52 50.6955 319.148 51.0842 318.882 51.5838C318.615 52.0835 318.482 52.6553 318.482 53.2993V53.4825C318.482 54.1487 318.626 54.7372 318.915 55.2479C319.215 55.7476 319.626 56.1418 320.148 56.4305C320.681 56.7081 321.286 56.8468 321.963 56.8468C322.496 56.8468 322.99 56.7525 323.445 56.5637C323.912 56.3749 324.311 56.0863 324.644 55.6976L325.311 56.4638C324.922 56.9301 324.433 57.2854 323.845 57.5297C323.268 57.774 322.629 57.8961 321.93 57.8961Z" fill="white"/>
<path d="M331.931 57.8128V49.0689H333.064V51.4506L332.947 51.0342C333.192 50.368 333.602 49.8628 334.18 49.5186C334.757 49.1633 335.473 48.9856 336.328 48.9856V50.1348C336.284 50.1348 336.239 50.1348 336.195 50.1348C336.151 50.1237 336.106 50.1182 336.062 50.1182C335.14 50.1182 334.418 50.4013 333.897 50.9676C333.375 51.5227 333.114 52.3166 333.114 53.3493V57.8128H331.931Z" fill="white"/>
</svg>
