<svg width="256" height="256" viewBox="0 0 256 256" fill="none" xmlns="http://www.w3.org/2000/svg">
<circle cx="128" cy="128" r="128" fill="#EA4343"/>
<circle cx="16.9019" cy="16.9019" r="16.9019" transform="matrix(1 0 0 -1 191.923 200.34)" fill="white"/>
<path d="M69.2637 161.901V176.388L27.7333 161.901L69.2637 161.901Z" fill="white"/>
<path d="M187.094 69.9539L187.094 55.4665L230.556 69.9539L187.094 69.9539Z" fill="white"/>
<path fill-rule="evenodd" clip-rule="evenodd" d="M151.966 137.562H167.778V200.533H187.094V55.4667H167.585L167.778 118.245H119.487V118.639L129.725 121.915C139.125 124.877 146.401 129.899 151.552 136.982C151.692 137.174 151.83 137.368 151.966 137.562ZM119.487 137.015V137.562H121.231L119.487 137.015Z" fill="white"/>
<path fill-rule="evenodd" clip-rule="evenodd" d="M104.999 199.991C110.248 199.274 115.013 197.845 119.293 195.704C125.861 192.485 130.948 187.978 134.553 182.183C138.159 176.388 139.962 169.627 139.962 161.9C139.962 152.371 137.386 144.065 132.235 136.982C127.084 129.899 119.808 124.877 110.408 121.915L104.999 120.185L104.999 138.527C110.665 140.202 114.979 143.163 117.941 147.413C121.032 151.663 122.577 156.621 122.577 162.287C122.577 169.369 120.259 174.907 115.623 178.899C112.793 181.406 109.252 183.126 104.999 184.058V199.991ZM85.6827 132.48V113.489C82.4498 111.748 79.8098 109.47 77.763 106.655C74.6723 102.406 73.127 97.3834 73.127 91.5884C73.127 85.1496 75.1874 80.1273 79.3083 76.5216C81.1355 74.9712 83.2603 73.7541 85.6827 72.8704V56.6004C81.9149 57.4045 78.438 58.6363 75.2518 60.2957C69.0706 63.3864 64.2414 67.7648 60.7645 73.4309C57.4163 78.9683 55.7422 85.5359 55.7422 93.1337C55.7422 102.534 58.3177 110.712 63.4688 117.666C68.7134 124.573 76.118 129.511 85.6827 132.48ZM104.999 55.9873V72.0279C108.799 72.9784 111.954 74.6695 114.464 77.1011C118.714 80.9644 120.839 86.373 120.839 93.3269H138.224C138.095 81.8658 134.296 72.7227 126.827 65.8975C121.027 60.4972 113.751 57.1938 104.999 55.9873ZM85.6827 183.498V199.714C80.9361 198.961 76.6221 197.689 72.7407 195.897C66.1731 192.807 61.0864 188.364 57.4807 182.569C53.8749 176.774 52.0077 169.884 51.8789 161.9H69.2637C69.2637 168.983 71.6461 174.585 76.4108 178.706C78.9848 180.873 82.0755 182.471 85.6827 183.498Z" fill="white"/>
</svg>
